<?xml version="1.0" encoding="UTF-8" standalone="no"?>
<!-- Created with Inkscape (http://www.inkscape.org/) -->

<svg
   xmlns:dc="http://purl.org/dc/elements/1.1/"
   xmlns:cc="http://creativecommons.org/ns#"
   xmlns:rdf="http://www.w3.org/1999/02/22-rdf-syntax-ns#"
   xmlns:svg="http://www.w3.org/2000/svg"
   xmlns="http://www.w3.org/2000/svg"
   xmlns:sodipodi="http://sodipodi.sourceforge.net/DTD/sodipodi-0.dtd"
   xmlns:inkscape="http://www.inkscape.org/namespaces/inkscape"
   width="46.096279mm"
   height="26.755846mm"
   viewBox="0 0 46.096279 26.755846"
   version="1.1"
   id="svg8">
  <defs
     id="defs2" />
  <sodipodi:namedview
     id="base"
     pagecolor="#ffffff"
     bordercolor="#666666"
     borderopacity="1.0"
     inkscape:pageopacity="0.0"
     inkscape:pageshadow="2"
     inkscape:zoom="2.8"
     inkscape:cx="49.897984"
     inkscape:cy="20.435536"
     inkscape:document-units="mm"
     inkscape:current-layer="layer1"
     showgrid="false"
     showguides="true"
     inkscape:guide-bbox="true"
     fit-margin-top="3"
     fit-margin-left="3"
     fit-margin-right="3"
     fit-margin-bottom="3"
     inkscape:window-width="1596"
     inkscape:window-height="873"
     inkscape:window-x="0"
     inkscape:window-y="563"
     inkscape:window-maximized="1" />
  <metadata
     id="metadata5">
    <rdf:RDF>
      <cc:Work
         rdf:about="">
        <dc:format>image/svg+xml</dc:format>
        <dc:type
           rdf:resource="http://purl.org/dc/dcmitype/StillImage" />
        <dc:title></dc:title>
      </cc:Work>
    </rdf:RDF>
  </metadata>
  <g
     id="layer1"
     transform="translate(-30.21547,-72.429871)">
    <g
       id="g867">
      <path
         d="m 44.645471,85.99627 q 0,1.1176 -0.762,1.1176 -0.5588,0 -1.253067,-0.694266 l -7.4168,-7.450667 v 8.0264 h -1.998133 v -10.5664 q 0,-0.4064 0.220133,-0.694266 0.220133,-0.3048 0.626533,-0.3048 0.5588,0 1.151467,0.592666 l 7.4168,7.433734 v -8.0264 h 2.015067 z"
         id="path4565" />
      <path
         d="m 59.578932,86.995337 h -6.640361 c -1.682045,0 -3.076223,-0.5588 -4.182534,-1.6764 -1.095022,-1.1176 -1.642533,-2.528711 -1.642533,-4.233333 0,-1.693333 0.541867,-3.059289 1.6256,-4.097867 1.095022,-1.038577 2.494844,-1.557866 4.199467,-1.557866 h 6.612665 v 2.015066 h -6.612665 c -1.106311,0 -2.020711,0.3556 -2.7432,1.0668 -0.7112,0.7112 -1.0668,1.6256 -1.0668,2.7432 0,1.106311 0.3556,2.003778 1.0668,2.6924 0.722489,0.688623 1.636889,1.032934 2.7432,1.032934 h 4.625294 v -2.523067 h -4.777694 v -1.845733 h 6.792761 z"
         id="path4567" />
      <path
         d="M 73.311752,85.08187 62.305085,81.356537 q -0.8128,-0.270933 -0.8128,-0.948266 0,-0.677334 0.8128,-0.948267 l 11.006667,-3.725333 v 2.116666 l -7.552267,2.556934 7.552267,2.556933 z"
         id="path4569" />
      <path
         d="m 36.828168,96.077061 h 1.20509 v -6.80579 h -0.8001 v 3.407834 c 0,1.224846 0.108656,2.321279 0.118533,2.597856 l -2.43981,-6.00569 h -1.16558 v 6.80579 h 0.8001 v -3.407833 c 0,-1.047044 -0.09878,-2.27189 -0.118533,-2.568223 z"
         id="path4572" />
      <path
         d="m 43.00921,96.185718 c 0.958144,0 1.610077,-0.246947 2.2225,-0.592667 v -3.239913 h -2.291646 l 0.09878,0.72108 h 1.3335 v 2.064453 c -0.385233,0.217313 -0.819856,0.325967 -1.293989,0.325967 -1.185334,0 -1.807634,-0.819854 -1.807634,-2.79541 0,-2.09409 0.948267,-2.785534 1.936044,-2.785534 0.563033,0 1.007533,0.1778 1.4224,0.563034 l 0.513646,-0.5334 c -0.5334,-0.49389 -1.047046,-0.75071 -1.936046,-0.75071 -1.471787,0 -2.854677,1.165576 -2.854677,3.50661 0,2.35091 1.037167,3.51649 2.657123,3.51649 z"
         id="path4574" />
      <path
         d="m 48.232106,96.077061 h 3.852333 l 0.108657,-0.76059 h -3.1115 v -6.0452 h -0.84949 z"
         id="path4576" />
      <path
         d="m 55.519459,93.765661 h 3.496733 c 0.0099,-0.108656 0.01976,-0.2667 0.01976,-0.4445 0,-1.580443 -0.809977,-2.558343 -2.123723,-2.558343 -1.382887,0 -2.26201,1.14582 -2.26201,2.716387 0,1.619956 0.859367,2.706513 2.380544,2.706513 0.642056,0 1.293989,-0.22719 1.778,-0.602547 l -0.385234,-0.553153 c -0.464254,0.30621 -0.859366,0.464253 -1.392766,0.464253 -0.8001,0 -1.471788,-0.52352 -1.5113,-1.72861 z m 1.402646,-2.321277 c 0.79022,0 1.28411,0.57291 1.303867,1.6891 h -2.706513 c 0.06915,-1.145823 0.632179,-1.6891 1.402646,-1.6891 z"
         id="path4578" />
      <path
         d="m 63.616788,95.504151 c -0.61242,0 -1.165577,-0.22719 -1.570567,-0.563033 l -0.464253,0.543276 c 0.4445,0.385234 1.086553,0.701324 2.03482,0.701324 1.106313,0 2.18299,-0.434624 2.18299,-1.550813 0,-0.968021 -0.67169,-1.323621 -1.6891,-1.6002 -1.047044,-0.286454 -1.37301,-0.4445 -1.37301,-0.918634 0,-0.39511 0.296333,-0.681566 1.126066,-0.681566 0.671687,0 1.116187,0.207433 1.501421,0.474133 l 0.375356,-0.57291 c -0.4445,-0.31609 -1.056923,-0.57291 -1.896533,-0.57291 -1.175457,0 -1.975557,0.553153 -1.975557,1.4224 0,0.908753 0.701324,1.23472 1.778,1.50142 1.106313,0.27658 1.25448,0.523523 1.25448,0.98778 0,0.503766 -0.484013,0.829733 -1.284113,0.829733 z"
         id="path4580" />
      <path
         d="m 70.59793,95.504151 c -0.612423,0 -1.165579,-0.22719 -1.570566,-0.563033 l -0.464257,0.543276 c 0.4445,0.385234 1.086557,0.701324 2.034823,0.701324 1.106311,0 2.182987,-0.434624 2.182987,-1.550813 0,-0.968021 -0.671687,-1.323621 -1.6891,-1.6002 -1.047043,-0.286454 -1.37301,-0.4445 -1.37301,-0.918634 0,-0.39511 0.296334,-0.681566 1.126067,-0.681566 0.67169,0 1.11619,0.207433 1.501423,0.474133 l 0.375354,-0.57291 c -0.4445,-0.31609 -1.056921,-0.57291 -1.896534,-0.57291 -1.175453,0 -1.975553,0.553153 -1.975553,1.4224 0,0.908753 0.70132,1.23472 1.778,1.50142 1.10631,0.27658 1.254477,0.523523 1.254477,0.98778 0,0.503766 -0.484011,0.829733 -1.284111,0.829733 z"
         id="path4582" />
    </g>
  </g>
</svg>
